<svg version="1.1" id="Layer_1" xmlns="http://www.w3.org/2000/svg" xmlns:xlink="http://www.w3.org/1999/xlink" x="0px" y="0px" viewBox="0 0 40.9 40.4" enable-background="new 0 0 40.9 40.4" xml:space="preserve">
<g id="XMLID_2094_">
<path id="XMLID_2101_" fill="none" stroke="#00d5ff" stroke-width="1.5" stroke-miterlimit="10" d="M20.9,39.5L20.9,39.5
		c-10.5,0-19-8.5-19-19v0c0-10.5,8.5-19,19-19h0c10.5,0,19,8.5,19,19v0C39.9,31,31.4,39.5,20.9,39.5z"></path>
<g id="XMLID_2095_">
<g id="XMLID_2097_">
<rect id="XMLID_2100_" x="12.3" y="16.2" fill="#00d5ff" width="3.9" height="12.7"></rect>
<ellipse id="XMLID_2098_" fill="#00d5ff" cx="14.2" cy="12.2" rx="2.3" ry="2.3"></ellipse>
</g>
<path id="XMLID_2096_" fill="#00d5ff" d="M22.5,22.3c0-1.8,0.8-2.9,2.4-2.9c1.4,0,2.1,1,2.1,2.9c0,1.8,0,6.7,0,6.7H31
			c0,0,0-4.6,0-8.1c0-3.4-1.9-5.1-4.6-5.1c-2.7,0-3.8,2.1-3.8,2.1v-1.7h-3.8v12.7h3.8C22.5,28.9,22.5,24.2,22.5,22.3z"></path>
</g>
</g>
</svg>