<svg xmlns="http://www.w3.org/2000/svg" xml:space="preserve" width="6.82666in" height="6.82666in" style="shape-rendering:geometricPrecision; text-rendering:geometricPrecision; image-rendering:optimizeQuality; fill-rule:evenodd; clip-rule:evenodd" viewBox="0 0 6.82666 6.82666" xmlns:xlink="http://www.w3.org/1999/xlink">
<defs>
<style type="text/css">
   
    .fil1 {fill:#FEFEFE;fill-rule:nonzero}
    .fil0 {fill:url(#id0)}
   
  </style>
<linearGradient id="id0" gradientUnits="userSpaceOnUse" x1="1.68784" y1="0.424697" x2="5.13882" y2="6.40196">
<stop offset="0" style="stop-color:#444FF5" id="id_102"></stop>
<stop offset="0.490196" style="stop-color:#21BFDB" id="id_103"></stop>
<stop offset="1" style="stop-color:#1DABB6" id="id_104"></stop>
</linearGradient>
</defs>
<g id="Layer_x0020_1">
<metadata id="CorelCorpID_0Corel-Layer"></metadata>
<path class="fil0" d="M6.36936 1.70667c0.942567,1.63257 0.383209,3.72013 -1.24937,4.6627 -1.63257,0.942567 -3.72013,0.383209 -4.6627,-1.24937 -0.942567,-1.63257 -0.383209,-3.72013 1.24937,-4.6627 1.63257,-0.942567 3.72013,-0.383209 4.6627,1.24937z" id="id_101"></path>
<g id="_431988784">
<path id="_431988376" class="fil1" d="M3.41333 1.07779c0.644146,0 1.2275,0.261528 1.64991,0.684354 0.422256,0.422661 0.683421,1.00646 0.683421,1.65119 0,0.644732 -0.261165,1.22853 -0.683421,1.65119 -0.422413,0.422827 -1.00576,0.684354 -1.64991,0.684354 -0.644146,0 -1.2275,-0.261528 -1.64991,-0.684354 -0.422252,-0.422661 -0.683421,-1.00646 -0.683421,-1.65119 0,-0.644732 0.261169,-1.22853 0.683421,-1.65119 0.422413,-0.422827 1.00576,-0.684354 1.64991,-0.684354zm1.5468 0.786898c-0.395697,-0.396079 -0.942563,-0.641063 -1.5468,-0.641063 -0.60424,0 -1.15111,0.244984 -1.5468,0.641063 -0.39585,0.396236 -0.640697,0.943764 -0.640697,1.54865 0,0.604882 0.244846,1.15241 0.640697,1.54865 0.395693,0.396079 0.942559,0.641063 1.5468,0.641063 0.60424,0 1.15111,-0.244984 1.5468,-0.641063 0.39585,-0.396236 0.640697,-0.943764 0.640697,-1.54865 0,-0.604882 -0.244846,-1.15241 -0.640697,-1.54865z"></path>
<path id="_431988328" class="fil1" d="M5.2169 4.89469c-0.217453,0.264921 -0.491913,0.48111 -0.804598,0.629669 -0.303,0.143969 -0.641701,0.22452 -0.998969,0.22452 -0.357276,0 -0.695972,-0.0805512 -0.998972,-0.22452 -0.314579,-0.149457 -0.590488,-0.36737 -0.808559,-0.634488l-0.000177165 0.000145669c-0.0254646,-0.0311929 -0.020815,-0.0771299 0.010378,-0.102594 0.00775591,-0.00633071 0.0164291,-0.0107992 0.0254685,-0.0134646 0.277638,-0.112917 0.566858,-0.200016 0.864906,-0.258441 0.294075,-0.0576457 0.59726,-0.087811 0.906953,-0.087811 0.309693,0 0.612882,0.0301654 0.906957,0.087811 0.300445,0.0588937 0.591925,0.146921 0.87161,0.261169l-0.0273425 0.0672244 0.0275709 -0.0675039c0.0372795,0.0152244 0.0551535,0.0577953 0.0399291,0.0950748 -0.0036378,0.00890551 -0.00883858,0.0167047 -0.0151535,0.0232087zm-0.866693 0.498075c0.264575,-0.125701 0.499902,-0.302972 0.693039,-0.518795 -0.240969,-0.0922283 -0.49187,-0.164697 -0.75087,-0.215469 -0.284531,-0.0557756 -0.578374,-0.0849606 -0.879047,-0.0849606 -0.300669,0 -0.594512,0.029185 -0.879039,0.0849606 -0.259004,0.0507717 -0.509906,0.12324 -0.750874,0.215469 0.193138,0.215823 0.428465,0.393094 0.693039,0.518795 0.283783,0.134835 0.601406,0.21028 0.936878,0.21028 0.335469,0 0.653091,-0.0754449 0.936874,-0.21028z"></path>
<path id="_431988448" class="fil1" d="M5.04325 1.9527c-0.193138,-0.215823 -0.428465,-0.393094 -0.693039,-0.518795 -0.283783,-0.134835 -0.601406,-0.21028 -0.936874,-0.21028 -0.335472,0 -0.653094,0.0754449 -0.936878,0.21028 -0.264575,0.125701 -0.499902,0.302972 -0.693039,0.518795 0.240969,0.0922283 0.49187,0.164697 0.750874,0.215469 0.284528,0.0557756 0.57837,0.0849606 0.879039,0.0849606 0.300673,0 0.594516,-0.029185 0.879047,-0.0849606 0.259,-0.0507717 0.509902,-0.12324 0.75087,-0.215469zm-0.630945 -0.65039c0.312685,0.148559 0.587146,0.364748 0.804598,0.629669 0.00631496,0.00650394 0.0115157,0.0143031 0.0151535,0.0232087 0.0152244,0.0372795 -0.00264961,0.0798504 -0.0399291,0.0950748l-0.0275709 -0.0675039 0.0273425 0.0672244c-0.279685,0.114248 -0.571165,0.202276 -0.87161,0.261169 -0.294075,0.0576457 -0.597264,0.087811 -0.906957,0.087811 -0.309693,0 -0.612878,-0.0301654 -0.906953,-0.087811 -0.298047,-0.0584252 -0.587268,-0.145524 -0.864906,-0.258441 -0.00903937,-0.00266535 -0.0177126,-0.00713386 -0.0254685,-0.0134646 -0.0311929,-0.0254646 -0.0358425,-0.0714016 -0.010378,-0.102594l0.000177165 0.000145669c0.218071,-0.267118 0.49398,-0.485031 0.808559,-0.634488 0.303,-0.143969 0.641697,-0.22452 0.998972,-0.22452 0.357268,0 0.695969,0.0805512 0.998969,0.22452z"></path>
<path id="_431988592" class="fil1" d="M3.41333 1.07779c0.358122,0 0.678343,0.268165 0.906571,0.701728 0.220815,0.41948 0.357394,0.997232 0.357394,1.63381 0,0.636583 -0.136579,1.21433 -0.357394,1.63381 -0.228228,0.433563 -0.548449,0.701728 -0.906571,0.701728 -0.358114,0 -0.678343,-0.268165 -0.906571,-0.701728 -0.220811,-0.41948 -0.357394,-0.997228 -0.357394,-1.63381 0,-0.636587 0.136583,-1.21433 0.357394,-1.63381 0.228228,-0.433563 0.548457,-0.701728 0.906571,-0.701728zm0.777827 0.769524c-0.202846,-0.385346 -0.47815,-0.623689 -0.777827,-0.623689 -0.299673,0 -0.57498,0.238343 -0.777827,0.623689 -0.210252,0.399417 -0.340303,0.952988 -0.340303,1.56602 0,0.613031 0.130051,1.1666 0.340303,1.56602 0.202846,0.385346 0.478154,0.623689 0.777827,0.623689 0.299677,0 0.57498,-0.238343 0.777827,-0.623689 0.210256,-0.399421 0.340307,-0.952996 0.340307,-1.56602 0,-0.613024 -0.130051,-1.1666 -0.340307,-1.56602z"></path>
<path id="_431988904" class="fil1" d="M1.15291 3.34041c-0.0402677,0 -0.0729134,0.0326496 -0.0729134,0.0729173 0,0.0402677 0.0326457,0.0729173 0.0729134,0.0729173l4.52083 0c0.0402677,0 0.0729134,-0.0326496 0.0729134,-0.0729173 0,-0.0402677 -0.0326457,-0.0729173 -0.0729134,-0.0729173l-4.52083 0z"></path>
</g>
</g>
</svg>